<?xml version="1.0" encoding="iso-8859-1"?>
<!-- Uploaded to: SVG Repo, www.svgrepo.com, Generator: SVG Repo Mixer Tools -->
<!DOCTYPE svg PUBLIC "-//W3C//DTD SVG 1.1//EN" "http://www.w3.org/Graphics/SVG/1.1/DTD/svg11.dtd">
<svg fill="#000000" version="1.1" id="Capa_1" xmlns="http://www.w3.org/2000/svg" xmlns:xlink="http://www.w3.org/1999/xlink" 
	 width="800px" height="800px" viewBox="0 0 318.233 318.233"
	 xml:space="preserve">
<g>
	<path d="M266.413,59.308c-15.24-30.093-47.378-48.387-79.071-55.872C127.534-10.681,46.313,18.928,40.287,88.094
		c-3.579,41.112,18.888,78.939,45.003,108.892c0.411,0.48,0.762,0.847,1.09,1.201c2.465,8.622,5.509,17.059,8.773,25.418
		c4.798,12.268,10.526,23.935,20.035,32.689c0.12,0.181,0.219,0.373,0.354,0.547c2.997,12.532,5.398,22.878,16.639,31.531
		c0.099,0.072,0.204,0.126,0.294,0.198c1.159,15.222,12.742,31.243,29.318,29.537c11.766-1.213,19.752-8.376,23.572-19.347
		c0.541-1.544,0.871-3.146,1.117-4.769c6.749-0.39,12.063-4.821,14.129-11.223c3.201-9.908,4.462-20.158,4.647-30.546
		c0.007-0.318-0.065-0.589-0.077-0.896c22.571-22.146,30.66-57.063,49.347-82.764C280.085,133.437,286.625,99.188,266.413,59.308z
		 M231.927,147.545c-7.626,11.159-15.853,21.649-22.482,33.485c-8.322,14.832-11.055,31.555-21.995,45.139
		c-12.694,15.768-33.711,16.008-50.852,8.334c-16.117-10.923-14.205-36.545-23.176-51.869
		c-12.439-21.233-29.718-36.383-38.623-60.682c-22.35-60.967,39.562-93.465,90.937-90.802c23.401,1.21,45.829,11.46,62.468,27.688
		C255.316,85.278,251.508,118.915,231.927,147.545z"/>
	<path d="M119.995,56.692c-19.179,7.404-30.805,22.635-35.332,42.508c-1.855,8.166,2.398,16.615,10.736,18.909
		c7.803,2.144,17.051-2.564,18.915-10.737c1.39-6.113,2.39-9.211,5.552-14.273c1.612-2.564,5.08-5.521,8.308-6.761
		c7.809-3.015,13.126-10.221,10.736-18.909C136.85,59.959,127.822,53.675,119.995,56.692z"/>
</g>
</svg>